<svg xmlns="http://www.w3.org/2000/svg" viewBox="0 0 512 512">
  <defs>
    <linearGradient id="bg" x1="0%" y1="0%" x2="100%" y2="100%">
      <stop offset="0%" style="stop-color:#00BFA6"/>
      <stop offset="100%" style="stop-color:#4F7CFF"/>
    </linearGradient>
  </defs>
  <rect width="512" height="512" rx="100" fill="url(#bg)"/>
  <circle cx="160" cy="320" r="70" fill="none" stroke="#fff" stroke-width="12"/>
  <circle cx="160" cy="320" r="55" fill="none" stroke="#fff" stroke-width="4" opacity="0.4"/>
  <line x1="160" y1="250" x2="160" y2="390" stroke="#fff" stroke-width="6" opacity="0.3"/>
  <line x1="90" y1="320" x2="230" y2="320" stroke="#fff" stroke-width="6" opacity="0.3"/>
  <text x="160" y="330" text-anchor="middle" fill="#fff" font-size="36" font-weight="bold" font-family="sans-serif">75</text>
  <path d="M340 250 C340 220, 370 200, 390 220 C410 200, 440 220, 440 250 C440 290, 390 330, 390 330 C390 330, 340 290, 340 250Z" fill="#FF6B6B"/>
  <path d="M380 370 L410 370 L410 355 L430 375 L410 395 L410 380 L380 380Z" fill="#fff" opacity="0.8"/>
</svg>
