<svg xmlns="http://www.w3.org/2000/svg" viewBox="0 0 512 512">
  <defs>
    <linearGradient id="bg" x1="76" y1="48" x2="436" y2="464" gradientUnits="userSpaceOnUse">
      <stop offset="0" stop-color="#19D3B5"/>
      <stop offset="1" stop-color="#3F6DF6"/>
    </linearGradient>
    <filter id="shadow" x="-20%" y="-20%" width="140%" height="140%">
      <feDropShadow dx="0" dy="16" stdDeviation="18" flood-color="#073B4C" flood-opacity=".22"/>
    </filter>
  </defs>
  <rect width="512" height="512" rx="116" fill="url(#bg)"/>
  <circle cx="414" cy="96" r="54" fill="#FFFFFF" opacity=".14"/>
  <circle cx="88" cy="424" r="76" fill="#FFFFFF" opacity=".10"/>
  <g filter="url(#shadow)">
    <rect x="108" y="116" width="296" height="296" rx="70" fill="#FFFFFF"/>
    <path d="M174 284c27-58 64-92 111-104 28-7 55-6 80 3" fill="none" stroke="#E5F4F2" stroke-width="18" stroke-linecap="round"/>
    <path d="M174 284c31-45 64-68 98-68 28 0 52 13 72 38" fill="none" stroke="#00BFA6" stroke-width="20" stroke-linecap="round"/>
    <circle cx="256" cy="262" r="84" fill="#F7FBFF" stroke="#E6EEF8" stroke-width="12"/>
    <path d="M256 191v39" stroke="#3F6DF6" stroke-width="14" stroke-linecap="round"/>
    <path d="M256 262l44-31" stroke="#3F6DF6" stroke-width="14" stroke-linecap="round"/>
    <circle cx="256" cy="262" r="13" fill="#3F6DF6"/>
    <path d="M184 342h144" stroke="#16324F" stroke-width="22" stroke-linecap="round"/>
  </g>
</svg>
